<?xml version="1.0" encoding="UTF-8"?>
<!DOCTYPE svg PUBLIC "-//W3C//DTD SVG 1.1//EN" "http://www.w3.org/Graphics/SVG/1.1/DTD/svg11.dtd">
<svg xmlns="http://www.w3.org/2000/svg" version="1.1" width="200px" height="200px" style="shape-rendering:geometricPrecision; text-rendering:geometricPrecision; image-rendering:optimizeQuality; fill-rule:evenodd; clip-rule:evenodd" xmlns:xlink="http://www.w3.org/1999/xlink">
<g><path style="opacity:0.994" fill="#fcfcfc" d="M 12.5,-0.5 C 70.5,-0.5 128.5,-0.5 186.5,-0.5C 188.769,0.97576 191.102,2.47576 193.5,4C 195.752,6.73612 197.752,9.56945 199.5,12.5C 199.5,70.5 199.5,128.5 199.5,186.5C 198.024,188.769 196.524,191.102 195,193.5C 192.264,195.752 189.431,197.752 186.5,199.5C 141.833,199.5 97.1667,199.5 52.5,199.5C 60.1309,191.368 67.9642,183.368 76,175.5C 77.4964,178.649 78.9964,181.816 80.5,185C 83.0301,186.422 85.6967,186.755 88.5,186C 100.019,173.315 111.353,160.482 122.5,147.5C 137.785,145.827 153.118,144.66 168.5,144C 178.319,144.195 180.819,140.028 176,131.5C 167.749,118.667 159.749,105.667 152,92.5C 152.394,87.9221 153.56,83.5887 155.5,79.5C 156.924,77.4855 157.59,75.1522 157.5,72.5C 160.299,61.4381 163.299,50.4381 166.5,39.5C 166.715,37.8212 166.048,36.8212 164.5,36.5C 162.205,34.615 159.538,34.115 156.5,35C 140.413,38.855 124.413,43.0216 108.5,47.5C 93.6762,37.0064 78.3429,27.3398 62.5,18.5C 58.0931,19.4062 55.5931,22.0728 55,26.5C 54.5773,42.9042 53.5773,59.2375 52,75.5C 39,86.5 26,97.5 13,108.5C 11,111.5 11,114.5 13,117.5C 15.5829,119.698 18.4162,121.531 21.5,123C 14.2982,130.369 6.9649,137.536 -0.5,144.5C -0.5,100.5 -0.5,56.5 -0.5,12.5C 0.97576,10.2314 2.47576,7.89805 4,5.5C 6.73612,3.24806 9.56945,1.24806 12.5,-0.5 Z"/></g>
<g><path style="opacity:0.812" fill="#6a6a6a" d="M 164.5,36.5 C 166.048,36.8212 166.715,37.8212 166.5,39.5C 165.599,38.7095 164.932,37.7095 164.5,36.5 Z"/></g>
<g><path style="opacity:0.933" fill="#a1a1a1" d="M 157.5,72.5 C 157.59,75.1522 156.924,77.4855 155.5,79.5C 155.41,76.8478 156.076,74.5145 157.5,72.5 Z"/></g>
<g><path style="opacity:0.931" fill="#f2f2f2" d="M 43.5,131.5 C 44.1667,132.167 44.8333,132.833 45.5,133.5C 30.5,149.167 15.1667,164.5 -0.5,179.5C -0.5,174.167 -0.5,168.833 -0.5,163.5C 11.2985,152.202 22.9651,140.702 34.5,129C 37.7156,128.903 40.7156,129.736 43.5,131.5 Z"/></g>
<g><path style="opacity:0.098" fill="#6a6a6a" d="M 43.5,131.5 C 44.675,131.281 45.675,131.614 46.5,132.5C 46.3764,133.107 46.0431,133.44 45.5,133.5C 44.8333,132.833 44.1667,132.167 43.5,131.5 Z"/></g>
<g><path style="opacity:0.928" fill="#f3f3f3" d="M 33.5,199.5 C 28.5,199.5 23.5,199.5 18.5,199.5C 34.5061,183.161 50.5061,166.827 66.5,150.5C 68.6058,154.308 69.7725,158.308 70,162.5C 57.6313,174.702 45.4647,187.035 33.5,199.5 Z"/></g>
</svg>
